<?xml version="1.0" encoding="UTF-8" standalone="no"?>
<!DOCTYPE svg PUBLIC "-//W3C//DTD SVG 1.1//EN" "http://www.w3.org/Graphics/SVG/1.1/DTD/svg11.dtd">
<svg width="100%" height="100%" viewBox="0 0 1001 1001" version="1.1" xmlns="http://www.w3.org/2000/svg" xmlns:xlink="http://www.w3.org/1999/xlink" xml:space="preserve" xmlns:serif="http://www.serif.com/" style="fill-rule:evenodd;clip-rule:evenodd;stroke-linejoin:round;stroke-miterlimit:2;">
    <g transform="matrix(1,0,0,1,-3313,-2)">
        <g id="White-Logo-No-BG" serif:id="White-Logo No BG" transform="matrix(1,0,0,1,3313.18,2.40661)">
            <rect x="0" y="0" width="1000" height="1000" style="fill:none;"/>
            <g transform="matrix(1,0,0,1,-3313.18,-1215.21)">
                <path d="M3395.79,1607.88C3398.16,1611.59 3400.82,1615.13 3403.75,1618.47C3420.75,1637.85 3461.32,1666.19 3510.62,1696.6C3546.24,1718.56 3586.41,1741.67 3625.38,1763.35C3625.73,1767.09 3626.25,1770.82 3626.95,1774.54C3629.91,1790.35 3636.03,1805.83 3645.5,1820.05C3652.42,1830.44 3660.65,1839.43 3669.83,1846.97C3677.99,1853.68 3687.72,1859.16 3692.83,1861.83C3694.85,1862.88 3696.19,1863.52 3696.51,1863.66C3696.91,1863.85 3701.12,1865.9 3706.92,1868.74C3710.66,1870.57 3715.33,1872.84 3720.78,1875.51C3668.49,1960.22 3651.93,2036.72 3648.47,2092.15L3461.8,2002.14C3447.31,1993.79 3434.47,1982.06 3424.58,1967.21C3418.48,1958.05 3415.82,1947.09 3415.4,1935.35C3415.4,1935.3 3415.4,1935.26 3415.4,1935.21L3395.79,1607.88ZM3658.96,2109.55C3659.03,2105.64 3659.16,2101.59 3659.38,2097.41C3662.14,2043.02 3677.82,1966.06 3730.85,1880.42C3732.79,1877.29 3734.78,1874.14 3736.83,1870.98C3744.22,1859.54 3752.29,1847.96 3761.09,1836.27C3782.96,1847.66 3798.26,1855.45 3803.32,1858.02C3832.51,1873.43 3859.86,1887.46 3868.95,1892.11C3856.04,1900.99 3844.15,1909.66 3833.65,1918.27C3830.44,1920.89 3827.37,1923.52 3824.44,1926.13C3821.3,1928.94 3818.31,1931.75 3815.51,1934.55C3759.96,1990.1 3716.11,2060.48 3688.38,2111.4C3686.56,2114.75 3684.8,2118.02 3683.12,2121.2C3674.01,2138.36 3666.98,2152.77 3662.23,2162.88C3660.39,2150.85 3658.54,2132.63 3658.96,2109.55ZM3698.38,2116.22C3725.7,2066.07 3768.8,1996.97 3823.36,1942.41C3827.03,1938.74 3831,1935.08 3835.25,1931.42C3867.68,1947.26 3902.23,1964.14 3934.67,1979.98C3936.91,1989.42 3938.21,1999.6 3938.21,2010.5C3938.21,2037 3933.85,2075.8 3919.9,2109.28C3910.85,2131.01 3897.78,2150.53 3878.97,2162.58C3878.82,2162.68 3878.68,2162.78 3878.54,2162.88C3842.21,2184.98 3819.18,2174.47 3778.52,2154.86L3698.38,2116.22ZM3714.45,1305.57L3728.6,1297.39C3712.75,1316.18 3698.53,1338.58 3687.82,1360.64C3687.02,1362.3 3686.23,1363.96 3685.46,1365.62C3674.19,1390.03 3667.43,1413.67 3667.43,1431.16C3667.43,1436.56 3667.72,1441.79 3668.27,1446.85C3669.93,1462.16 3673.95,1475.96 3679.34,1488.24C3692.9,1520.19 3714.72,1542.22 3728.21,1551.57C3728.59,1551.36 3728.99,1551.14 3729.41,1550.91C3732.89,1553.54 3736.05,1555.69 3738.75,1557.36C3738.75,1557.36 3739.08,1557.56 3739.73,1557.95C3745.01,1561.09 3771.03,1576.46 3803.28,1593.49C3803.3,1593.51 3803.33,1593.52 3803.36,1593.54C3812.6,1598.22 3857.47,1620.79 3914.38,1650.91C3917.68,1652.66 3921.03,1654.43 3924.41,1656.23C3972.13,1681.6 4027.01,1711.64 4076.09,1740.66C4079.4,1742.61 4082.68,1744.57 4085.93,1746.51C4090.43,1749.2 4094.87,1751.88 4099.23,1754.54C4147.92,1784.18 4188.07,1811.62 4204.65,1830.52C4240.08,1870.93 4229.17,1942.7 4161.96,1986C4161.95,1986 4124.38,2009.44 4078.67,2037.97C4007.69,2082.26 3917.08,2138.8 3917.08,2138.8C3917.31,2138.45 3917.53,2138.11 3917.74,2137.76C3922.51,2130.18 3926.63,2122.03 3930.16,2113.55C3944.71,2078.62 3949.32,2038.15 3949.32,2010.5C3949.32,2001.97 3948.59,1993.84 3947.26,1986.13C3946.44,1981.34 3945.39,1976.71 3944.14,1972.24C3933.21,1933.09 3907.3,1906.24 3888.93,1891.98C3885.38,1889.22 3882.11,1886.93 3879.28,1885.11C3878.84,1884.83 3878.41,1884.56 3878,1884.3C3877.98,1884.29 3844.62,1867.27 3808.47,1848.17C3808.44,1848.15 3808.41,1848.14 3808.38,1848.12C3803.51,1845.66 3788.9,1838.22 3767.96,1827.32C3764.76,1825.66 3761.41,1823.91 3757.93,1822.09C3727.34,1806.1 3686.27,1784.31 3642.92,1760.37C3638,1757.65 3633.06,1754.91 3628.1,1752.15C3590.12,1730.99 3551.12,1708.52 3516.46,1687.14C3468.38,1657.49 3428.68,1630.04 3412.1,1611.14C3402.73,1600.46 3396.6,1587.59 3393.9,1573.63C3392.8,1567.95 3392.26,1562.09 3392.31,1556.12C3392.57,1521.31 3412.5,1482.83 3454.71,1455.71C3454.72,1455.71 3622.77,1358.57 3714.45,1305.57ZM4084.1,1732.49C4035.24,1703.52 3980.4,1673.45 3932.45,1647.92C3942.31,1637.75 3952.37,1627.46 3962.47,1617.27C4000.28,1639.65 4047.41,1667.55 4059.4,1674.64C4061.09,1675.64 4062.09,1676.23 4062.27,1676.33L4062.47,1676.45L4062.6,1676.49L4062.56,1676.5C4062.56,1676.5 4070.18,1681.06 4075.17,1685.86C4079.5,1690.01 4083.29,1694.88 4086.37,1700.38C4090.25,1707.33 4092.66,1714.71 4093.7,1722.15C4090.55,1725.65 4087.35,1729.1 4084.1,1732.49ZM4225.62,1547.82C4225.63,1551.54 4225.28,1555.29 4224.52,1559.05C4221.78,1572.69 4209.14,1593 4193.07,1614.89C4163.71,1654.89 4122.6,1699.68 4104.46,1718.98C4104.06,1716.52 4103.53,1714.06 4102.87,1711.62C4101.33,1705.93 4099.07,1700.34 4096.07,1694.96C4092.44,1688.47 4087.97,1682.75 4082.87,1677.84C4077.03,1672.23 4069.56,1667.71 4068.11,1666.87L4067.88,1666.75L4067.89,1666.75C4067.89,1666.75 4066.72,1666.06 4065.06,1665.08C4053.32,1658.13 4007.93,1631.27 3970.55,1609.14L3960.9,1603.43C3948.76,1596.25 3937.98,1589.87 3930.2,1585.26C3925.06,1582.22 3921.23,1579.95 3919.18,1578.74C3918.86,1578.55 3918.53,1578.4 3918.19,1578.28C3890.26,1562.03 3869.78,1550.12 3865.94,1547.88C3865.6,1547.68 3865.33,1547.52 3865.33,1547.52L3865.34,1547.54L3864.94,1547.28C3862.54,1545.85 3849.78,1538.59 3836.75,1534.63C3825.4,1531.17 3813.35,1529.31 3800.86,1529.31C3783.78,1529.31 3767.5,1532.8 3752.7,1539.09C3750.17,1540.17 3745.34,1542.54 3740.34,1545.11C3719.05,1530.4 3678.54,1492.18 3678.54,1431.16C3678.54,1413.74 3685.99,1389.87 3697.82,1365.49C3715.76,1328.52 3743.83,1290.4 3772.71,1271.89C3773.38,1271.46 3773.93,1270.9 3774.34,1270.28C3782.98,1266.25 3791.87,1263.86 3800.86,1263.86C3818.71,1263.86 3835.58,1268.04 3850.56,1275.47C3850.57,1275.47 4153.26,1454.4 4153.26,1454.4C4178.05,1469.06 4201.94,1489.42 4215.21,1512.51C4221.68,1523.76 4225.59,1535.65 4225.62,1547.82Z" style="fill:white;"/>
            </g>
        </g>
    </g>
</svg>
