<?xml version="1.0" encoding="UTF-8"?>
<svg xmlns="http://www.w3.org/2000/svg" xmlns:xlink="http://www.w3.org/1999/xlink" width="500px" height="px" viewBox="0 0 500 500" version="1.1">
<g id="surface1">
<path style=" stroke:none;fill-rule:nonzero;fill:rgb(87.450981%,87.450981%,87.450981%);fill-opacity:1;" d="M 250 500 C 250 500 218.75 500 218.75 468.75 C 218.75 437.5 250 437.5 250 437.5 C 250 437.5 281.25 437.5 281.25 406.25 C 281.25 375 250 375 250 375 L 31.25 375 C 31.25 375 0 375 0 343.75 C 0 312.5 31.25 312.5 31.25 312.5 L 250 312.5 C 250 312.5 343.75 312.5 343.75 406.25 C 343.75 500 250 500 250 500 Z M 406.25 93.75 C 406.25 93.75 375 93.75 375 125 C 375 156.25 406.25 156.25 406.25 156.25 C 406.25 156.25 437.5 156.25 437.5 187.5 C 437.5 218.75 406.25 218.75 406.25 218.75 L 156.25 218.75 C 156.25 218.75 125 218.75 125 250 C 125 281.25 156.25 281.25 156.25 281.25 L 406.25 281.25 C 406.25 281.25 500 281.25 500 187.5 C 500 93.75 406.25 93.75 406.25 93.75 Z M 250 0 C 250 0 218.75 0 218.75 31.25 C 218.75 62.5 250 62.5 250 62.5 C 250 62.5 281.25 62.5 281.25 93.75 C 281.25 125 250 125 250 125 L 31.25 125 C 31.25 125 0 125 0 156.25 C 0 187.5 31.25 187.5 31.25 187.5 L 250 187.5 C 250 187.5 343.75 187.5 343.75 93.75 C 343.75 0 250 0 250 0 Z M 250 0 "/>
</g>
</svg>
