<?xml version="1.0" encoding="UTF-8"?>
<svg xmlns="http://www.w3.org/2000/svg" xmlns:xlink="http://www.w3.org/1999/xlink" width="500px" height="px" viewBox="0 0 500 500" version="1.1">
<g id="surface1">
<path style=" stroke:none;fill-rule:nonzero;fill:rgb(87.450981%,87.450981%,87.450981%);fill-opacity:1;" d="M 250 31.25 C 185.277344 31.25 130.164062 70.871094 106.445312 126.953125 C 46.199219 135.910156 0 187.261719 0 250 C 0 319.03125 55.964844 375 125 375 L 137.695312 375 C 151.878906 349.96875 176.476562 330.40625 204.101562 322.28125 C 223.46875 280.9375 265.8125 249.1875 312.5 250 C 372.125 249.03125 424.4375 296.40625 433.59375 354.5 C 438.0625 355.90625 442 357.34375 446.28125 359.375 C 478.5 340.34375 500 305.75 500 265.625 C 500 209.484375 457.78125 163.476562 403.3125 157.226562 C 389.125 85.558594 325.84375 31.25 250 31.25 Z M 312.5 281.25 C 271.5 281.25 237.34375 308.0625 224.625 344.71875 C 186.148438 349.59375 156.25 382.09375 156.25 421.875 C 156.25 465.03125 191.226562 500 234.375 500 L 406.25 500 C 440.78125 500 468.75 472.03125 468.75 437.5 C 468.75 402.96875 440.78125 375 406.25 375 C 406.25 323.21875 364.28125 281.25 312.5 281.25 Z M 312.5 281.25 "/>
</g>
</svg>
