<?xml version="1.0" encoding="UTF-8"?>
<svg xmlns="http://www.w3.org/2000/svg" xmlns:xlink="http://www.w3.org/1999/xlink" width="500px" height="px" viewBox="0 0 500 500" version="1.1">
<g id="surface1">
<path style=" stroke:none;fill-rule:nonzero;fill:rgb(87.450981%,87.450981%,87.450981%);fill-opacity:1;" d="M 218.75 0 L 218.75 65.183594 C 229.074219 63.417969 239.527344 62.519531 250 62.5 C 260.476562 62.5625 270.929688 63.5 281.25 65.308594 L 281.25 0 Z M 95.335938 51.148438 L 51.148438 95.335938 L 97.289062 141.480469 C 109.46875 124.398438 124.425781 109.480469 141.539062 97.351562 Z M 404.664062 51.148438 L 358.519531 97.289062 C 375.601562 109.46875 390.519531 124.425781 402.648438 141.539062 L 448.851562 95.335938 Z M 250 93.75 C 163.707031 93.75 93.75 163.707031 93.75 250 C 93.75 336.292969 163.707031 406.25 250 406.25 C 336.292969 406.25 406.25 336.292969 406.25 250 C 406.25 163.707031 336.292969 93.75 250 93.75 Z M 0 218.75 L 0 281.25 L 65.183594 281.25 C 63.417969 270.925781 62.519531 260.472656 62.5 250 C 62.5625 239.523438 63.5 229.070312 65.308594 218.75 Z M 434.8125 218.75 C 436.582031 229.074219 437.480469 239.527344 437.5 250 C 437.4375 260.476562 436.5 270.929688 434.691406 281.25 L 500 281.25 L 500 218.75 Z M 97.351562 358.460938 L 51.148438 404.664062 L 95.335938 448.851562 L 141.480469 402.710938 C 124.398438 390.53125 109.480469 375.574219 97.351562 358.460938 Z M 402.710938 358.523438 C 390.53125 375.601562 375.574219 390.519531 358.460938 402.652344 L 404.664062 448.855469 L 448.851562 404.664062 Z M 218.75 434.691406 L 218.75 500 L 281.25 500 L 281.25 434.8125 C 270.925781 436.582031 260.472656 437.480469 250 437.5 C 239.523438 437.4375 229.070312 436.5 218.75 434.691406 Z M 218.75 434.691406 "/>
</g>
</svg>
