<?xml version="1.0" encoding="UTF-8"?>
<svg xmlns="http://www.w3.org/2000/svg" xmlns:xlink="http://www.w3.org/1999/xlink" width="500px" height="px" viewBox="0 0 500 500" version="1.1">
<g id="surface1">
<path style=" stroke:none;fill-rule:nonzero;fill:rgb(87.450981%,87.450981%,87.450981%);fill-opacity:1;" d="M 250 0 C 185.28125 0 130.15625 39.6875 106.4375 95.9375 C 46.1875 104.6875 0 156.25 0 218.75 C 0 279.375 42.65625 329.375 99.59375 340.9375 C 123.46875 316.5625 147.15625 292.1875 171.875 268.75 C 189.78125 285.625 207.28125 303.125 224.59375 320.3125 C 232.1875 318.125 236.5625 294.0625 247.0625 286.25 C 273.75 259.0625 300.46875 232.1875 328.125 206.25 C 348.9375 225.625 368.46875 245.625 388.65625 265.625 C 407.34375 283.4375 427.03125 303.4375 433.59375 329.0625 C 434.09375 330.9375 434.15625 332.5 434.5625 334.0625 C 473.15625 317.1875 500 279.375 500 234.375 C 500 178.4375 457.78125 132.1875 403.3125 125.9375 C 389.09375 54.375 325.84375 0 250 0 Z M 328.125 295 C 325.46875 297.5 322.96875 300.3125 320.3125 302.8125 C 307.90625 315.9375 292.21875 327.1875 285.15625 343.75 L 372.0625 343.75 C 371.25 341.875 370.3125 339.6875 369.125 338.125 C 357.46875 321.875 341.65625 309.375 328.125 295 Z M 328.125 295 "/>
<path style=" stroke:none;fill-rule:nonzero;fill:rgb(25.882354%,52.156866%,95.686275%);fill-opacity:1;" d="M 328.125 250 L 317.375 260.625 L 273.4375 304.6875 C 259.28125 318.75 250 337.8125 250 359.375 C 250 402.1875 285.15625 437.5 328.125 437.5 C 371.09375 437.5 406.25 402.1875 406.25 359.375 C 406.25 337.8125 396.96875 318.75 382.8125 304.6875 L 338.875 260.625 Z M 171.875 312.5 L 161.125 323.125 L 117.1875 367.1875 C 103.03125 381.25 93.75 400.3125 93.75 421.875 C 93.75 464.6875 128.90625 500 171.875 500 C 214.84375 500 250 464.6875 250 421.875 C 250 400.3125 240.71875 381.25 226.5625 367.1875 L 182.625 323.125 Z M 171.875 312.5 "/>
</g>
</svg>
