<?xml version="1.0" encoding="UTF-8"?>
<svg xmlns="http://www.w3.org/2000/svg" xmlns:xlink="http://www.w3.org/1999/xlink" width="500px" height="px" viewBox="0 0 500 500" version="1.1">
<g id="surface1">
<path style=" stroke:none;fill-rule:nonzero;fill:rgb(87.450981%,87.450981%,87.450981%);fill-opacity:1;" d="M 250 0 C 185.3125 0 130.3125 39.6875 106.5625 95.625 C 46.25 104.6875 0 155.9375 0 218.75 C 0 287.8125 55.9375 343.75 125 343.75 L 390.625 343.75 C 450.9375 343.75 500 294.6875 500 234.375 C 500 178.125 457.8125 132.1875 403.4375 125.9375 C 389.0625 54.375 325.9375 0 250 0 Z M 250 0 "/>
<path style=" stroke:none;fill-rule:nonzero;fill:rgb(87.450981%,87.450981%,87.450981%);fill-opacity:1;" d="M 93.019531 374.8125 C 87.320312 375.121094 82.242188 378.511719 79.773438 383.65625 L 48.523438 446.15625 C 45.84375 451.171875 46.101562 457.246094 49.195312 462.015625 C 52.292969 466.789062 57.734375 469.5 63.40625 469.101562 C 69.078125 468.699219 74.082031 465.25 76.476562 460.09375 L 107.726562 397.59375 C 110.300781 392.617188 110.015625 386.644531 106.976562 381.941406 C 103.9375 377.234375 98.613281 374.515625 93.019531 374.8125 Z M 171.144531 374.8125 C 165.445312 375.121094 160.367188 378.511719 157.898438 383.65625 L 126.648438 446.15625 C 123.96875 451.171875 124.226562 457.246094 127.320312 462.015625 C 130.417969 466.789062 135.859375 469.5 141.53125 469.101562 C 147.203125 468.699219 152.207031 465.25 154.601562 460.09375 L 185.851562 397.59375 C 188.425781 392.617188 188.140625 386.644531 185.101562 381.941406 C 182.0625 377.234375 176.738281 374.515625 171.144531 374.8125 Z M 249.269531 374.8125 C 243.570312 375.121094 238.492188 378.511719 236.023438 383.65625 L 204.773438 446.15625 C 202.09375 451.171875 202.351562 457.246094 205.445312 462.015625 C 208.542969 466.789062 213.984375 469.5 219.65625 469.101562 C 225.328125 468.699219 230.332031 465.25 232.726562 460.09375 L 263.976562 397.59375 C 266.550781 392.617188 266.265625 386.644531 263.226562 381.941406 C 260.1875 377.234375 254.863281 374.515625 249.269531 374.8125 Z M 327.40625 374.8125 C 321.707031 375.117188 316.625 378.507812 314.15625 383.65625 L 282.898438 446.15625 C 280.21875 451.171875 280.476562 457.246094 283.570312 462.015625 C 286.667969 466.789062 292.109375 469.5 297.78125 469.101562 C 303.453125 468.699219 308.457031 465.25 310.851562 460.09375 L 342.09375 397.59375 C 344.664062 392.621094 344.378906 386.65625 341.347656 381.949219 C 338.3125 377.246094 332.996094 374.523438 327.40625 374.8125 Z M 405.53125 374.8125 C 399.832031 375.117188 394.75 378.507812 392.28125 383.65625 L 361.03125 446.15625 C 358.25 451.179688 358.445312 457.324219 361.546875 462.160156 C 364.644531 466.992188 370.148438 469.738281 375.875 469.308594 C 381.601562 468.875 386.628906 465.335938 388.96875 460.09375 L 420.21875 397.59375 C 422.789062 392.621094 422.503906 386.65625 419.472656 381.949219 C 416.4375 377.246094 411.121094 374.523438 405.53125 374.8125 Z M 405.53125 374.8125 "/>
</g>
</svg>
