<?xml version="1.0" encoding="UTF-8"?>
<svg xmlns="http://www.w3.org/2000/svg" xmlns:xlink="http://www.w3.org/1999/xlink" width="500px" height="px" viewBox="0 0 500 500" version="1.1">
<g id="surface1">
<path style=" stroke:none;fill-rule:nonzero;fill:rgb(87.450981%,87.450981%,87.450981%);fill-opacity:1;" d="M 241.75 31.132812 C 155.414062 34.304688 75.851562 87.523438 44.484375 173.710938 C 28.105469 218.71875 27.492188 265.65625 39.539062 308.59375 C 52.15625 267.40625 85.929688 235.6875 128.226562 224.75 C 133.539062 215.664062 139.835938 207.246094 146.65625 199.347656 C 146.984375 177.148438 150.730469 154.703125 158.742188 132.695312 C 174.808594 88.550781 204.820312 54.308594 241.75 31.132812 Z M 252.6875 179.695312 C 204.132812 179.695312 162.800781 209.410156 145.007812 251.46875 C 99.824219 258.1875 65.175781 296.6875 65.175781 343.75 C 65.175781 395.53125 107.148438 437.5 158.925781 437.5 L 358.15625 437.5 C 403.4375 437.5 440.1875 400.78125 440.1875 355.46875 C 440.1875 313.375 408.53125 278.875 367.65625 274.1875 C 357 220.4375 309.5625 179.695312 252.6875 179.695312 Z M 252.6875 179.695312 "/>
</g>
</svg>
