<?xml version="1.0" encoding="UTF-8"?>
<svg xmlns="http://www.w3.org/2000/svg" xmlns:xlink="http://www.w3.org/1999/xlink" width="500px" height="px" viewBox="0 0 500 500" version="1.1">
<g id="surface1">
<path style=" stroke:none;fill-rule:nonzero;fill:rgb(87.450981%,87.450981%,87.450981%);fill-opacity:1;" d="M 218.75 0 L 218.75 65.1875 C 229.074219 63.417969 239.527344 62.519531 250 62.5 C 260.476562 62.5625 270.929688 63.5 281.25 65.308594 L 281.25 0 Z M 95.335938 51.148438 L 51.148438 95.335938 L 97.289062 141.480469 C 109.46875 124.398438 124.425781 109.480469 141.539062 97.351562 Z M 404.664062 51.148438 L 358.519531 97.289062 C 375.601562 109.46875 390.519531 124.425781 402.648438 141.539062 L 448.851562 95.335938 Z M 250 93.75 C 163.707031 93.75 93.75 163.707031 93.75 250 C 93.75 303.148438 120.765625 352.652344 165.464844 381.410156 C 178.542969 353.304688 204.425781 332.40625 235.105469 322.570312 C 255.300781 281.304688 294.460938 250 343.75 250 C 366.65625 250 387.300781 256.964844 404.96875 268.371094 C 405.757812 262.277344 406.183594 256.144531 406.25 250 C 406.25 163.707031 336.292969 93.75 250 93.75 Z M 0 218.75 L 0 281.25 L 65.1875 281.25 C 63.417969 270.925781 62.519531 260.472656 62.5 250 C 62.5625 239.523438 63.5 229.070312 65.308594 218.75 Z M 434.8125 218.75 C 436.582031 229.074219 437.480469 239.527344 437.5 250 C 437.4375 260.476562 436.5 270.929688 434.691406 281.25 L 500 281.25 L 500 218.75 Z M 343.75 281.25 C 302.8125 281.25 268.734375 308.101562 255.921875 344.664062 C 217.484375 349.664062 187.5 382.1875 187.5 421.875 C 187.5 465 222.5 500 265.625 500 L 421.875 500 C 465 500 500 465 500 421.875 C 500 382.1875 470.015625 349.664062 431.578125 344.664062 C 419.078125 308.101562 384.6875 281.25 343.75 281.25 Z M 97.351562 358.460938 L 51.148438 404.664062 L 95.335938 448.851562 L 141.480469 402.710938 C 124.398438 390.53125 109.480469 375.574219 97.351562 358.460938 Z M 97.351562 358.460938 "/>
</g>
</svg>
