<?xml version="1.0" encoding="UTF-8"?>
<svg xmlns="http://www.w3.org/2000/svg" xmlns:xlink="http://www.w3.org/1999/xlink" width="500px" height="px" viewBox="0 0 500 500" version="1.1">
<g id="surface1">
<path style=" stroke:none;fill-rule:nonzero;fill:rgb(87.450981%,87.450981%,87.450981%);fill-opacity:1;" d="M 250 0 C 185.277344 0 130.164062 39.621094 106.445312 95.703125 C 46.199219 104.660156 0 156.011719 0 218.75 C 0 287.78125 55.964844 343.75 125 343.75 L 162.046875 343.75 C 175.074219 307.5625 209.570312 281.25 250 281.25 C 290.4375 281.25 324.9375 307.5625 337.9375 343.75 L 390.625 343.75 C 451.03125 343.75 500 294.78125 500 234.375 C 500 178.234375 457.78125 132.226562 403.3125 125.976562 C 389.125 54.308594 325.84375 0 250 0 Z M 250 312.5 C 215.480469 312.5 187.5 340.480469 187.5 375 C 187.5 409.519531 215.480469 437.5 250 437.5 C 284.519531 437.5 312.5 409.519531 312.5 375 C 312.5 340.480469 284.519531 312.5 250 312.5 Z M 93.75 375 C 59.230469 375 31.25 402.980469 31.25 437.5 C 31.25 472.019531 59.230469 500 93.75 500 C 128.269531 500 156.25 472.019531 156.25 437.5 C 156.25 402.980469 128.269531 375 93.75 375 Z M 406.25 375 C 371.730469 375 343.75 402.980469 343.75 437.5 C 343.75 472.019531 371.730469 500 406.25 500 C 440.769531 500 468.75 472.019531 468.75 437.5 C 468.75 402.980469 440.769531 375 406.25 375 Z M 406.25 375 "/>
</g>
</svg>
