<?xml version="1.0" encoding="UTF-8"?>
<svg xmlns="http://www.w3.org/2000/svg" xmlns:xlink="http://www.w3.org/1999/xlink" width="500px" height="px" viewBox="0 0 500 500" version="1.1">
<g id="surface1">
<path style=" stroke:none;fill-rule:nonzero;fill:rgb(87.450981%,87.450981%,87.450981%);fill-opacity:1;" d="M 250 0 C 185.3125 0 130.3125 39.6875 106.5625 95.625 C 46.25 104.6875 0 155.9375 0 218.75 C 0 241.5625 6.25 262.8125 16.875 281.25 L 16.25 281.25 C 33.75 311.5625 63.75 333.75 99.0625 340.9375 L 171.875 268.125 L 226.5625 322.8125 C 232.1875 307.5 240.3125 293.4375 251.25 282.5 L 328.125 205.625 L 405 282.5 C 418.75 296.25 429.0625 314.0625 434.0625 334.0625 L 434.6875 334.0625 L 435 333.75 L 435.3125 333.75 L 435.625 333.4375 C 473.75 316.25 500 278.75 500 234.375 C 500 178.125 457.8125 132.1875 403.4375 125.9375 C 389.0625 54.375 325.9375 0 250 0 Z M 250 0 "/>
<path style=" stroke:none;fill-rule:nonzero;fill:rgb(87.450981%,87.450981%,87.450981%);fill-opacity:1;" d="M 328.125 250 L 273.4375 304.6875 C 259.375 318.75 250 337.8125 250 359.375 C 250 402.1875 285.3125 437.5 328.125 437.5 C 370.9375 437.5 406.25 402.1875 406.25 359.375 C 406.25 337.8125 396.875 318.75 382.8125 304.6875 Z M 171.875 312.5 L 117.1875 367.1875 C 103.125 381.25 93.75 400.3125 93.75 421.875 C 93.75 464.6875 129.0625 500 171.875 500 C 214.6875 500 250 464.6875 250 421.875 C 250 400.3125 240.625 381.25 226.5625 367.1875 Z M 171.875 312.5 "/>
</g>
</svg>
