<?xml version="1.0" encoding="UTF-8"?>
<svg xmlns="http://www.w3.org/2000/svg" xmlns:xlink="http://www.w3.org/1999/xlink" width="500px" height="px" viewBox="0 0 500 500" version="1.1">
<defs>
<filter id="alpha" filterUnits="objectBoundingBox" x="0%" y="0%" width="100%" height="100%">
  <feColorMatrix type="matrix" in="SourceGraphic" values="0 0 0 0 1 0 0 0 0 1 0 0 0 0 1 0 0 0 1 0"/>
</filter>
<mask id="mask0">
  <g filter="url(#alpha)">
<rect x="0" y="0" width="500" height="500" style="fill:rgb(0%,0%,0%);fill-opacity:0.301961;stroke:none;"/>
  </g>
</mask>
<clipPath id="clip1">
  <rect x="0" y="0" width="500" height="500"/>
</clipPath>
<g id="surface5" clip-path="url(#clip1)">
<path style=" stroke:none;fill-rule:nonzero;fill:rgb(87.450981%,87.450981%,87.450981%);fill-opacity:1;" d="M 62.5 31.25 C 45.1875 31.25 31.25 45.1875 31.25 62.5 C 31.25 79.8125 45.1875 93.75 62.5 93.75 L 250 93.75 C 267.3125 93.75 281.25 79.8125 281.25 62.5 C 281.25 45.1875 267.3125 31.25 250 31.25 Z M 156.25 156.25 C 138.9375 156.25 125 170.1875 125 187.5 C 125 204.8125 138.9375 218.75 156.25 218.75 L 468.75 218.75 C 486.0625 218.75 500 204.8125 500 187.5 C 500 170.1875 486.0625 156.25 468.75 156.25 Z M 31.25 281.25 C 13.9375 281.25 0 295.1875 0 312.5 C 0 329.8125 13.9375 343.75 31.25 343.75 L 375 343.75 C 392.3125 343.75 406.25 329.8125 406.25 312.5 C 406.25 295.1875 392.3125 281.25 375 281.25 Z M 93.75 406.25 C 76.4375 406.25 62.5 420.1875 62.5 437.5 C 62.5 454.8125 76.4375 468.75 93.75 468.75 L 468.75 468.75 C 486.0625 468.75 500 454.8125 500 437.5 C 500 420.1875 486.0625 406.25 468.75 406.25 Z M 93.75 406.25 "/>
</g>
</defs>
<g id="surface1">
<use xlink:href="#surface5" mask="url(#mask0)"/>
</g>
</svg>
