<?xml version="1.0" encoding="UTF-8"?>
<svg xmlns="http://www.w3.org/2000/svg" xmlns:xlink="http://www.w3.org/1999/xlink" width="500px" height="px" viewBox="0 0 500 500" version="1.1">
<g id="surface1">
<path style=" stroke:none;fill-rule:nonzero;fill:rgb(87.450981%,87.450981%,87.450981%);fill-opacity:1;" d="M 250 0.125 C 185.277344 0.125 130.164062 39.746094 106.445312 95.828125 C 46.199219 104.785156 0 156.136719 0 218.875 C 0 287.90625 55.964844 343.875 125 343.875 L 390.625 343.875 C 451.03125 343.875 500 294.90625 500 234.5 C 500 178.359375 457.78125 132.351562 403.3125 126.101562 C 389.125 54.433594 325.84375 0.125 250 0.125 Z M 125 375 C 107.742188 375 93.75 388.992188 93.75 406.25 C 93.75 423.507812 107.742188 437.5 125 437.5 C 142.257812 437.5 156.25 423.507812 156.25 406.25 C 156.25 388.992188 142.257812 375 125 375 Z M 250 375 C 232.742188 375 218.75 388.992188 218.75 406.25 C 218.75 423.507812 232.742188 437.5 250 437.5 C 267.257812 437.5 281.25 423.507812 281.25 406.25 C 281.25 388.992188 267.257812 375 250 375 Z M 375 375 C 357.742188 375 343.75 388.992188 343.75 406.25 C 343.75 423.507812 357.742188 437.5 375 437.5 C 392.257812 437.5 406.25 423.507812 406.25 406.25 C 406.25 388.992188 392.257812 375 375 375 Z M 62.5 437.5 C 45.242188 437.5 31.25 451.492188 31.25 468.75 C 31.25 486.007812 45.242188 500 62.5 500 C 79.757812 500 93.75 486.007812 93.75 468.75 C 93.75 451.492188 79.757812 437.5 62.5 437.5 Z M 187.5 437.5 C 170.242188 437.5 156.25 451.492188 156.25 468.75 C 156.25 486.007812 170.242188 500 187.5 500 C 204.757812 500 218.75 486.007812 218.75 468.75 C 218.75 451.492188 204.757812 437.5 187.5 437.5 Z M 312.5 437.5 C 295.242188 437.5 281.25 451.492188 281.25 468.75 C 281.25 486.007812 295.242188 500 312.5 500 C 329.757812 500 343.75 486.007812 343.75 468.75 C 343.75 451.492188 329.757812 437.5 312.5 437.5 Z M 437.5 437.5 C 420.242188 437.5 406.25 451.492188 406.25 468.75 C 406.25 486.007812 420.242188 500 437.5 500 C 454.757812 500 468.75 486.007812 468.75 468.75 C 468.75 451.492188 454.757812 437.5 437.5 437.5 Z M 437.5 437.5 "/>
</g>
</svg>
