<?xml version="1.0" encoding="UTF-8"?>
<svg xmlns="http://www.w3.org/2000/svg" xmlns:xlink="http://www.w3.org/1999/xlink" width="500px" height="px" viewBox="0 0 500 500" version="1.1">
<g id="surface1">
<path style=" stroke:none;fill-rule:nonzero;fill:rgb(87.450981%,87.450981%,87.450981%);fill-opacity:1;" d="M 250 0 C 185.3125 0 130.3125 39.6875 106.5625 95.9375 C 46.25 104.6875 0 156.25 0 218.75 C 0 287.8125 55.9375 343.75 125 343.75 L 187.5 343.75 L 187.5 265.625 C 187.5 239.6875 208.4375 218.75 234.375 218.75 C 260.3125 218.75 281.25 239.6875 281.25 265.625 L 281.25 343.75 L 390.625 343.75 C 450.9375 343.75 500 295 500 234.375 C 500 178.4375 457.8125 132.1875 403.4375 125.9375 C 389.0625 54.375 325.9375 0 250 0 Z M 250 0 "/>
<path style=" stroke:none;fill-rule:nonzero;fill:rgb(25.882354%,52.156866%,95.686275%);fill-opacity:1;" d="M 229.375 250.914062 C 223.125 253.101562 218.4375 259.664062 218.75 266.539062 L 218.75 384.664062 L 217.8125 387.476562 L 198.125 407.164062 L 133.75 407.164062 L 130 412.164062 L 98.75 443.414062 C 90.625 448.101562 89.0625 460.914062 95.625 467.789062 C 102.5 474.351562 115.3125 472.789062 120 464.664062 L 146.5625 438.414062 L 187.5 438.414062 L 187.5 482.164062 C 187.5 490.289062 195 498.101562 203.125 498.101562 C 211.25 498.101562 218.75 490.289062 218.75 482.164062 L 218.75 428.726562 L 240.3125 407.164062 L 306.5625 407.164062 L 330 430.601562 L 286.25 471.539062 C 278.125 476.226562 276.5625 489.039062 283.125 495.914062 C 290 502.476562 302.8125 500.914062 307.5 492.789062 L 351.5625 452.164062 L 395.625 492.789062 C 400.3125 500.914062 413.125 502.476562 420 495.914062 C 426.5625 489.039062 425 476.226562 416.875 471.539062 L 323.125 380.914062 L 319.375 375.914062 L 250 375.914062 L 250 266.539062 C 250 257.164062 240.625 249.039062 231.5625 250.914062 Z M 229.375 250.914062 "/>
</g>
</svg>
