<?xml version="1.0" encoding="UTF-8"?>
<svg xmlns="http://www.w3.org/2000/svg" xmlns:xlink="http://www.w3.org/1999/xlink" width="500px" height="px" viewBox="0 0 500 500" version="1.1">
<g id="surface1">
<path style=" stroke:none;fill-rule:nonzero;fill:rgb(87.450981%,87.450981%,87.450981%);fill-opacity:1;" d="M 250 0.125 C 185.277344 0.125 130.164062 39.746094 106.445312 95.828125 C 46.199219 104.785156 0 156.136719 0 218.875 C 0 287.90625 55.964844 343.875 125 343.875 L 390.625 343.875 C 451.03125 343.875 500 294.90625 500 234.5 C 500 178.359375 457.78125 132.351562 403.3125 126.101562 C 389.125 54.433594 325.84375 0.125 250 0.125 Z M 108.703125 374.75 C 102.980469 375.035156 97.875 378.429688 95.398438 383.59375 L 64.148438 446.09375 C 60.28125 453.8125 63.40625 463.207031 71.125 467.070312 C 78.84375 470.9375 88.238281 467.8125 92.101562 460.09375 L 123.351562 397.59375 C 125.949219 392.621094 125.683594 386.640625 122.65625 381.921875 C 119.628906 377.199219 114.304688 374.460938 108.703125 374.75 Z M 202.453125 374.8125 C 196.730469 375.097656 191.625 378.492188 189.148438 383.65625 L 157.898438 446.15625 C 154.03125 453.875 157.15625 463.269531 164.875 467.132812 C 172.59375 471 181.988281 467.875 185.851562 460.15625 L 217.101562 397.65625 C 219.699219 392.683594 219.433594 386.703125 216.40625 381.984375 C 213.378906 377.261719 208.054688 374.523438 202.453125 374.8125 Z M 343.75 375 C 326.492188 375 312.5 388.992188 312.5 406.25 C 312.5 423.507812 326.492188 437.5 343.75 437.5 C 361.007812 437.5 375 423.507812 375 406.25 C 375 388.992188 361.007812 375 343.75 375 Z M 281.25 437.5 C 263.992188 437.5 250 451.492188 250 468.75 C 250 486.007812 263.992188 500 281.25 500 C 298.507812 500 312.5 486.007812 312.5 468.75 C 312.5 451.492188 298.507812 437.5 281.25 437.5 Z M 406.25 437.5 C 388.992188 437.5 375 451.492188 375 468.75 C 375 486.007812 388.992188 500 406.25 500 C 423.507812 500 437.5 486.007812 437.5 468.75 C 437.5 451.492188 423.507812 437.5 406.25 437.5 Z M 406.25 437.5 "/>
</g>
</svg>
