<?xml version="1.0" encoding="UTF-8"?>
<svg xmlns="http://www.w3.org/2000/svg" xmlns:xlink="http://www.w3.org/1999/xlink" width="500px" height="px" viewBox="0 0 500 500" version="1.1">
<g id="surface1">
<path style=" stroke:none;fill-rule:nonzero;fill:rgb(98.823529%,76.862746%,40.392157%);fill-opacity:1;" d="M 312.5 250 C 271.5625 250 237.5 276.875 224.6875 313.4375 C 186.25 318.4375 156.25 350.9375 156.25 390.625 C 156.25 433.75 191.25 468.75 234.375 468.75 L 390.625 468.75 C 433.75 468.75 468.75 433.75 468.75 390.625 C 468.75 350.9375 438.75 318.4375 400.3125 313.4375 C 387.8125 276.875 353.4375 250 312.5 250 Z M 312.5 250 "/>
<path style=" stroke:none;fill-rule:nonzero;fill:rgb(87.450981%,87.450981%,87.450981%);fill-opacity:1;" d="M 250 0 C 185.3125 0 130.320312 39.703125 106.570312 95.640625 C 46.257812 104.703125 0 155.9375 0 218.75 C 0 287.8125 55.9375 343.75 125 343.75 L 137.328125 343.75 C 151.210938 318.875 175.527344 300.402344 203.855469 291.320312 C 224.050781 250.054688 263.210938 218.75 312.5 218.75 C 361.65625 218.75 400.9375 249.914062 421.03125 291.257812 C 436.96875 296.355469 451.65625 304.492188 464 315 C 485.96875 294.984375 500 266.382812 500 234.375 C 500 178.125 457.8125 132.164062 403.4375 125.914062 C 389.0625 54.351562 325.9375 0 250 0 Z M 250 0 "/>
</g>
</svg>
