<?xml version="1.0" encoding="UTF-8"?>
<svg xmlns="http://www.w3.org/2000/svg" xmlns:xlink="http://www.w3.org/1999/xlink" width="500px" height="px" viewBox="0 0 500 500" version="1.1">
<g id="surface1">
<path style=" stroke:none;fill-rule:nonzero;fill:rgb(87.450981%,87.450981%,87.450981%);fill-opacity:1;" d="M 421.875 500 C 465 500 500 465 500 421.875 C 500 382.1875 470 349.6875 431.5625 344.6875 C 419.0625 308.125 384.6875 281.25 343.75 281.25 C 302.8125 281.25 268.75 308.125 255.9375 344.6875 C 217.5 349.6875 187.5 382.1875 187.5 421.875 C 187.5 465 222.5 500 265.625 500 "/>
<path style=" stroke:none;fill-rule:nonzero;fill:rgb(87.450981%,87.450981%,87.450981%);fill-opacity:1;" d="M 250 31.25 C 128.578125 31.21875 31.25 129.1875 31.25 250 C 31.25 338.78125 84.238281 415 160.21875 449.28125 C 157.894531 440.46875 156.25 431.375 156.25 421.875 C 156.25 384.65625 176.769531 354.625 206.117188 336.1875 C 175.132812 300.523438 156.25 254.070312 156.25 203.125 C 156.292969 133.34375 191.542969 68.4375 250 31.25 Z M 250 31.25 "/>
</g>
</svg>
